<svg width="35" height="35" viewBox="0 0 35 35" fill="none" xmlns="http://www.w3.org/2000/svg">
<path fill-rule="evenodd" clip-rule="evenodd" d="M15.4041 25.7851L8.20976 18.5905C7.92295 18.3039 7.92295 17.839 8.20976 17.5522L15.4041 10.3576C15.5475 10.2142 15.7352 10.1425 15.9231 10.1425C16.1111 10.1425 16.2987 10.2142 16.4421 10.3576C16.729 10.6441 16.729 11.1091 16.4421 11.3957L10.501 17.337L25.5159 17.337C25.9214 17.337 26.25 17.6659 26.25 18.0712C26.25 18.4764 25.9213 18.8053 25.5159 18.8053L10.5009 18.8053L16.4421 24.7468C16.729 25.0333 16.729 25.4983 16.4421 25.7851C16.1553 26.0716 15.6909 26.0716 15.4041 25.7851Z" fill="#247A50"/>
<circle cx="17.5" cy="17.5" r="17" transform="rotate(-180 17.5 17.5)" stroke="#D6D6D6"/>
</svg>
