<svg width="35" height="35" viewBox="0 0 35 35" fill="none" xmlns="http://www.w3.org/2000/svg">
<path fill-rule="evenodd" clip-rule="evenodd" d="M19.5959 9.21492L26.7902 16.4095C27.0771 16.6961 27.0771 17.161 26.7902 17.4479L19.5959 24.6424C19.4525 24.7858 19.2648 24.8575 19.0769 24.8575C18.8889 24.8575 18.7013 24.7858 18.5579 24.6424C18.271 24.3559 18.271 23.8909 18.5579 23.6043L24.499 17.663L9.48415 17.663C9.07864 17.663 8.75 17.3341 8.75 16.9288C8.75 16.5236 9.07867 16.1947 9.48415 16.1947L24.4991 16.1947L18.5579 10.2532C18.271 9.96668 18.271 9.50174 18.5579 9.21492C18.8447 8.92836 19.3091 8.92836 19.5959 9.21492Z" fill="#247A50"/>
<circle cx="17.5" cy="17.5" r="17" stroke="#D6D6D6"/>
</svg>
